<?xml version="1.0" standalone="no"?>
<!DOCTYPE svg PUBLIC "-//W3C//DTD SVG 20010904//EN"
 "http://www.w3.org/TR/2001/REC-SVG-20010904/DTD/svg10.dtd">
<svg version="1.0" xmlns="http://www.w3.org/2000/svg"
 width="500.000000pt" height="500.000000pt" viewBox="0 0 500.000000 500.000000"
 preserveAspectRatio="xMidYMid meet">

<g transform="translate(0.000000,500.000000) scale(0.100000,-0.100000)"
fill="#000000" stroke="none">
<path d="M2376 4322 c-74 -92 -104 -139 -126 -195 -42 -109 -55 -215 -41 -334
12 -104 59 -306 72 -311 4 -2 6 -9 4 -15 -3 -7 40 -174 94 -372 l98 -360 9 60
c5 33 8 68 8 78 0 9 3 17 8 17 4 0 8 7 8 15 0 27 61 208 98 290 128 285 326
386 456 233 61 -70 130 -235 158 -375 l13 -62 126 158 126 157 -116 131 c-64
71 -179 200 -255 286 l-139 156 -28 -30 c-19 -20 -37 -29 -58 -29 -39 0 -81
39 -81 73 0 29 35 77 56 77 8 0 14 4 14 8 0 5 -69 85 -152 178 -84 94 -176
196 -204 228 l-51 59 -97 -121z m269 -122 c50 -19 53 -110 4 -125 -10 -4 -19
-10 -19 -16 0 -18 -69 25 -80 51 -14 33 2 73 34 88 27 14 30 14 61 2z m91
-204 c39 -39 45 -89 17 -137 -53 -89 -193 -44 -193 63 0 55 51 108 105 108 29
0 45 -8 71 -34z"/>
<path d="M2582 4168 c-7 -7 -12 -21 -12 -33 0 -12 5 -26 12 -33 7 -7 21 -12
33 -12 12 0 26 5 33 12 7 7 12 21 12 33 0 12 -5 26 -12 33 -7 7 -21 12 -33 12
-12 0 -26 -5 -33 -12z"/>
<path d="M2634 4000 c-85 -35 -60 -164 31 -164 72 0 111 84 63 138 -26 29 -63
39 -94 26z"/>
<path d="M2839 4159 c-17 -33 3 -69 39 -69 33 0 52 16 52 45 0 29 -19 45 -52
45 -18 0 -31 -7 -39 -21z"/>
<path d="M2075 3946 c-22 -28 -156 -196 -297 -374 -142 -178 -258 -327 -258
-331 0 -9 34 -47 195 -226 40 -44 191 -213 336 -375 145 -162 283 -315 306
-340 l42 -45 -15 55 c-8 30 -17 63 -19 73 -5 21 -100 373 -150 557 -124 449
-110 391 -130 529 -24 157 -17 316 21 465 8 32 14 59 12 61 -2 1 -21 -20 -43
-49z"/>
<path d="M2844 3925 c-13 -21 -15 -31 -6 -50 21 -45 93 -42 105 4 15 59 -65
97 -99 46z"/>
<path d="M2784 3231 c-94 -57 -177 -220 -219 -430 -26 -125 -17 -312 20 -458
27 -105 44 -135 58 -99 3 8 97 128 208 268 111 139 206 258 211 265 11 13 -28
176 -66 275 -67 180 -127 231 -212 179z"/>
<path d="M2481 1969 c-10 -24 -51 -113 -90 -197 -39 -85 -71 -158 -71 -163 0
-5 15 -9 34 -9 28 0 36 5 46 30 l12 30 93 0 93 0 12 -30 c10 -25 18 -30 46
-30 19 0 34 4 34 10 0 12 -169 382 -181 394 -5 5 -16 -9 -28 -35z m55 -174
c13 -31 24 -60 24 -65 0 -6 -25 -10 -55 -10 -30 0 -55 4 -55 9 0 14 49 121 55
121 4 0 17 -25 31 -55z"/>
<path d="M1620 1799 l0 -201 106 4 106 3 34 37 c25 28 34 47 34 73 0 45 -23
92 -51 100 -14 5 -18 12 -13 23 14 34 16 73 5 100 -19 45 -59 62 -145 62 l-76
0 0 -201z m160 111 c15 -28 -3 -57 -40 -65 -41 -9 -50 0 -50 46 0 39 0 39 40
39 29 0 42 -5 50 -20z m31 -140 c24 -13 25 -57 2 -82 -12 -13 -30 -18 -70 -18
l-53 0 0 55 0 55 51 0 c28 0 59 -5 70 -10z"/>
<path d="M1950 1800 l0 -200 35 0 35 0 0 200 0 200 -35 0 -35 0 0 -200z"/>
<path d="M2070 1965 l0 -35 50 0 50 0 0 -165 0 -165 35 0 35 0 0 164 0 165 53
3 c51 3 52 4 55 36 l3 32 -140 0 -141 0 0 -35z"/>
<path d="M2740 1800 l0 -200 35 0 35 0 0 75 c0 71 1 75 23 75 16 0 35 -19 72
-75 49 -73 51 -74 94 -75 41 0 43 1 30 20 -8 10 -33 46 -57 79 l-43 60 24 16
c30 19 47 56 47 98 0 44 -19 77 -59 104 -29 19 -47 23 -117 23 l-84 0 0 -200z
m172 113 c46 -41 3 -103 -71 -103 l-31 0 0 60 0 60 42 0 c24 0 49 -7 60 -17z"/>
<path d="M3042 1968 c3 -32 4 -33 56 -36 l52 -3 0 -165 0 -164 35 0 35 0 0
165 0 165 50 0 50 0 0 35 0 35 -141 0 -140 0 3 -32z"/>
<path d="M2552 1497 c-16 -18 -42 -98 -42 -128 0 -41 18 -49 93 -42 65 6 95
21 82 42 -4 7 -15 5 -30 -5 -27 -18 -31 -14 -37 36 -2 14 -7 23 -13 20 -5 -3
-8 -16 -6 -30 3 -25 3 -25 -18 -6 -26 24 -26 41 -1 73 15 20 17 29 9 39 -14
17 -24 18 -37 1z m26 -19 c-2 -6 -10 -14 -16 -16 -7 -2 -10 2 -6 12 7 18 28
22 22 4z m-11 -135 c-14 -13 -37 8 -37 33 l0 27 21 -27 c12 -15 19 -30 16 -33z"/>
<path d="M1445 1486 c-36 -16 -69 -50 -63 -67 3 -8 8 -8 18 3 47 45 109 60
178 42 l23 -7 -27 -28 c-20 -21 -37 -29 -63 -29 -52 0 -86 -20 -86 -50 0 -36
25 -35 83 4 28 18 53 32 55 29 3 -2 -2 -22 -11 -44 -8 -21 -12 -42 -8 -46 10
-10 22 7 36 50 15 48 49 54 42 7 -3 -22 0 -30 11 -30 8 0 17 13 21 30 5 27 26
43 26 20 0 -5 7 -10 15 -10 8 0 15 -9 15 -20 0 -35 14 -22 30 27 11 36 21 49
40 54 14 4 19 7 11 8 -9 1 -11 9 -7 26 8 31 -18 35 -34 5 -6 -11 -20 -20 -30
-20 -23 0 -27 -18 -6 -26 8 -3 12 -13 9 -25 -7 -25 -23 -25 -23 0 0 22 -13 34
-24 23 -4 -4 -11 -7 -14 -7 -4 -1 -17 -5 -30 -9 -34 -11 -36 -3 -12 43 11 23
19 41 18 41 -2 1 -25 2 -53 4 -27 2 -63 6 -80 10 -18 3 -42 0 -60 -8z m52
-121 c-28 -25 -67 -34 -67 -16 0 16 43 41 70 41 l25 -1 -28 -24z"/>
<path d="M2085 1457 c-8 -12 -15 -26 -15 -32 0 -5 -7 -23 -15 -38 -9 -18 -11
-35 -6 -50 9 -21 9 -21 16 -2 9 28 47 104 40 82 -14 -49 -18 -100 -7 -93 7 4
12 14 12 23 0 9 14 40 30 70 17 29 30 55 30 57 0 2 -16 4 -35 4 -25 0 -40 -6
-50 -21z"/>
<path d="M3269 1432 c-11 -26 -23 -54 -27 -62 -9 -17 -4 -50 7 -50 4 0 12 20
19 45 15 57 33 60 21 4 -6 -23 -7 -44 -4 -47 7 -7 8 -5 25 48 13 39 19 45 45
48 38 4 53 18 37 34 -9 9 -13 7 -18 -5 -10 -26 -27 -20 -20 7 5 22 3 24 -30
24 -33 0 -37 -3 -55 -46z"/>
<path d="M2270 1410 c-8 -5 -17 -7 -21 -4 -4 2 -19 -12 -33 -31 -15 -19 -34
-35 -43 -35 -13 0 -12 5 6 24 26 28 21 47 -10 39 -24 -7 -44 -45 -36 -67 7
-19 38 -21 55 -4 9 9 15 9 24 0 18 -18 25 -15 36 17 10 28 12 29 36 18 14 -7
26 -20 26 -29 0 -23 22 -23 43 0 21 23 22 39 2 22 -13 -11 -14 -8 -9 19 7 36
-9 43 -26 11 -12 -22 -35 -28 -27 -7 8 21 -6 37 -23 27z"/>
<path d="M2791 1391 c-42 -42 -15 -84 37 -57 23 12 28 12 37 -1 9 -12 16 -13
33 -4 28 15 38 49 20 68 -13 12 -20 10 -57 -21 -47 -40 -64 -45 -59 -18 2 9
12 16 21 16 11 -1 17 4 15 14 -5 24 -25 25 -47 3z m111 -33 c-7 -7 -12 -8 -12
-2 0 14 12 26 19 19 2 -3 -1 -11 -7 -17z"/>
<path d="M2951 1384 c-37 -47 -22 -82 17 -37 13 16 21 21 19 12 -9 -27 7 -43
31 -30 14 7 23 8 27 1 9 -15 42 -12 60 6 15 15 14 18 -1 42 -15 23 -15 25 0
19 9 -4 16 -2 16 3 0 14 -47 12 -56 -2 -4 -6 0 -16 9 -23 24 -17 21 -25 -9
-25 -17 0 -23 4 -18 13 4 6 -3 3 -15 -8 l-23 -20 7 38 c7 36 -5 51 -21 26 -5
-8 -9 -8 -14 1 -5 8 -14 3 -29 -16z"/>
<path d="M3151 1396 c-19 -22 -19 -72 -1 -67 8 3 27 4 42 3 15 -1 30 3 33 8 4
6 2 10 -4 10 -7 0 -7 8 1 25 18 40 -1 43 -33 5 -17 -20 -26 -26 -20 -13 20 40
7 60 -18 29z"/>
<path d="M3330 1389 c-14 -25 -9 -61 8 -67 7 -2 12 6 12 20 0 13 5 29 11 35
12 12 4 33 -11 33 -5 0 -14 -9 -20 -21z"/>
<path d="M3384 1386 c-16 -24 -19 -66 -4 -66 6 0 15 12 21 28 8 18 13 22 16
12 3 -8 6 -21 9 -28 3 -9 9 -10 22 -3 13 7 22 7 29 0 6 -6 19 -2 36 11 15 12
27 19 27 15 0 -13 -29 -62 -44 -74 -20 -17 -21 -41 -1 -41 18 0 65 93 65 127
0 16 -8 25 -27 29 -22 6 -31 2 -55 -26 -30 -36 -47 -36 -28 0 14 26 8 33 -26
35 -16 0 -31 -7 -40 -19z m146 -10 c0 -3 -4 -8 -10 -11 -5 -3 -10 -1 -10 4 0
6 5 11 10 11 6 0 10 -2 10 -4z"/>
<path d="M1838 1376 c-6 -14 -8 -32 -4 -41 5 -15 9 -14 37 6 l31 22 -21 -41
c-11 -22 -25 -43 -31 -47 -15 -9 -12 -35 4 -35 15 0 50 64 62 114 8 31 -6 46
-44 46 -14 0 -26 -9 -34 -24z m47 -6 c-3 -5 -11 -10 -16 -10 -6 0 -7 5 -4 10
3 6 11 10 16 10 6 0 7 -4 4 -10z"/>
<path d="M1944 1374 c-21 -31 -5 -56 24 -38 13 9 20 7 29 -5 11 -15 13 -14 30
2 11 10 13 17 5 17 -8 0 -10 8 -7 23 6 21 3 24 -29 25 -28 1 -40 -4 -52 -24z
m38 -6 c-7 -7 -12 -8 -12 -2 0 6 3 14 7 17 3 4 9 5 12 2 2 -3 -1 -11 -7 -17z"/>
<path d="M2375 1390 c-3 -5 -3 -14 0 -20 7 -11 -17 -61 -39 -79 -17 -15 -22
-51 -7 -51 25 0 90 137 74 154 -9 9 -21 7 -28 -4z"/>
</g>
</svg>
